# xmcd
#
# Track frame offsets: 
#        150
#        15705
#        28342
#        44842
#        61491
#        77317
#        94304
#        108368
#        124680
#        141067
#        157867
#        174706
#        191580
#        203992
#        220795
#        237592
#        254436
#        268460
#        281469
#        297670
#
# Disc length: 4198 seconds
#
# Revision: 0
# Processed by: cddbd v1.5.2PL0 Copyright (c) Steve Scherf et al.
# Submitted via: ExactAudioCopy v0.99pb4
#
DISCID=37106414
DTITLE=Various Artist - The Very Best of Rare Groove
DYEAR=1900
DGENRE=Rare Groove
TTITLE0=The Jones Girls - This Feeling's Killing Me
TTITLE1=Patti and The Lovlites - Love So Strong
TTITLE2=Cameo - I Never Knew
TTITLE3=Chuck Mangione - Do You Ever THink About Me
TTITLE4=Ruffin and kendricks - Don't Know Why You're Dreaming
TTITLE5=Club Nouveau - Share Your Love
TTITLE6=7 Miles High - Love Has Gone Away
TTITLE7=The Whisper - I'm the One for You
TTITLE8=McCravys - Love on a Summer Night
TTITLE9=Brenda and Herb - What Goes Around
TTITLE10=Jeffree - Love's Gonna Last
TTITLE11=Mellae - Free
TTITLE12=Betty Wright - Smother Me With Your Love
TTITLE13=Joshie Jo Armstead - In the Right Place
TTITLE14=Star Vue - Body Fusion
TTITLE15=Barkays - Open Your Heart
TTITLE16=Jean Terrell - How Can You Live Without Love
TTITLE17=Vernon Burch - Lovely Lady
TTITLE18=Passion - Midnight Lovers
TTITLE19=Yasuga Agasukai - LA Nights
EXTD=
EXTT0=
EXTT1=
EXTT2=
EXTT3=
EXTT4=
EXTT5=
EXTT6=
EXTT7=
EXTT8=
EXTT9=
EXTT10=
EXTT11=
EXTT12=
EXTT13=
EXTT14=
EXTT15=
EXTT16=
EXTT17=
EXTT18=
EXTT19=
PLAYORDER=
